# xmcd
#
# Track frame offsets: 
#        150
#        14859
#        28636
#        44070
#        57449
#        72992
#        86511
#        102017
#        115727
#        130815
#        144305
#        159334
#        175066
#        189546
#        203940
#        218823
#        233748
#        247814
#        263423
#        277747
#
# Disc length: 3880 seconds
#
# Revision: 0
# Processed by: cddbd v1.5.2PL0 Copyright (c) Steve Scherf et al.
# Submitted via: ExactAudioCopy v0.90b2
#
DISCID=130f2614
DTITLE=Bessie Smith - Careless Love
DYEAR=2004
DGENRE=Blues
TTITLE0=Jailhouse Blues
TTITLE1=Yellow Dog Blues
TTITLE2=At The Christmas Ball
TTITLE3=Nobody Knows You When You're Down And Out
TTITLE4=Downhearted Blues
TTITLE5=Good Man Is Hard To Find
TTITLE6=Careless Love
TTITLE7=Empty Bed Blues (Pt 1)
TTITLE8=Empty Bed Blues (Pt 2)
TTITLE9=Alexander's Ragtime Band
TTITLE10=Jazzbo Brown From Memphis Town
TTITLE11=Gimme A Pigfoot And A Bottle Of Beer
TTITLE12=My Sweetie Went Away
TTITLE13=St Louis Blues
TTITLE14=Ticket Agent Base Your Window Down
TTITLE15=Backwater Blues
TTITLE16=Muddy Water
TTITLE17='T Ain't Nobody Bizness If I Do
TTITLE18=Cake Walkin' Babies From Home
TTITLE19=After You've Gone
EXTD=
EXTT0=
EXTT1=
EXTT2=
EXTT3=
EXTT4=
EXTT5=
EXTT6=
EXTT7=
EXTT8=
EXTT9=
EXTT10=
EXTT11=
EXTT12=
EXTT13=
EXTT14=
EXTT15=
EXTT16=
EXTT17=
EXTT18=
EXTT19=
PLAYORDER=
